<?xml version="1.0" encoding="UTF-8" standalone="no"?><!DOCTYPE svg PUBLIC "-//W3C//DTD SVG 1.1//EN" "http://www.w3.org/Graphics/SVG/1.1/DTD/svg11.dtd"><svg width="100%" height="100%" viewBox="0 0 850 555" version="1.1" xmlns="http://www.w3.org/2000/svg" xmlns:xlink="http://www.w3.org/1999/xlink" xml:space="preserve" xmlns:serif="http://www.serif.com/" style="fill-rule:evenodd;clip-rule:evenodd;stroke-linejoin:round;stroke-miterlimit:2;"><path d="M407.133,42.69c35.857,-4.97 82.693,6.159 115.552,20.514c-18.446,8.761 -35.488,24.385 -50.554,37.993c-13.904,-2.794 -27.623,-5.361 -41.838,-5.818c-48.712,-1.1 -95.885,17.091 -131.247,50.611c-34.949,33.241 -55.207,79.041 -56.289,127.261c-1.163,48 16.588,94.534 49.425,129.563c33.024,35.371 78.84,56.037 127.211,57.387c48.98,1.446 96.509,-16.717 132.043,-50.458c37.679,-35.675 54.646,-80.829 56.004,-131.925l39.575,-0.079l13.237,0.109c-3.054,58.798 -17.342,106.347 -56.258,152.02c-84.063,98.663 -232.767,111.067 -331.518,26.95c-99.743,-84.96 -111.883,-233.23 -26.55,-332.8c40.632,-47.662 98.73,-76.972 161.208,-81.329Z" style="fill:#08438d;fill-rule:nonzero;"/><path d="M323.799,142.666c40.923,-29.302 83.704,-38.973 133.386,-30.794c1.45,0.229 2.892,0.493 4.329,0.79c-15.825,18.753 -23.732,31.64 -35.679,52.76c-32.487,0.752 -59.808,11.43 -82.485,35.189c-20.565,21.298 -31.653,50.002 -30.743,79.595c0.538,30.004 13.165,58.521 35.018,79.087c21.348,20.377 49.926,31.425 79.43,30.707c30.03,-0.746 58.543,-13.358 79.297,-35.077c21.096,-22.335 28.95,-46.551 30.462,-76.527c18.633,-0.394 37.275,-0.513 55.912,-0.36c-2.204,49.365 -17.704,90.286 -55.367,124.212c-70.054,63.096 -176.934,56.258 -239.39,-14.326c-63.334,-71.575 -52.845,-188.802 25.829,-245.256Z" style="fill:#0471b7;fill-rule:nonzero;"/><path d="M637.827,42.782c6.4,-0.594 16.054,-0.323 22.733,-0.31c0.438,17.425 0.304,35.5 0.4,52.977c-51.917,1.584 -89.762,9.739 -130.679,45.059c-44.267,38.212 -59.571,81.535 -63.65,138.058l-26.91,0.032c-8.743,0.055 -17.578,-0.07 -26.329,-0.129c-0.125,-58.332 21.457,-114.624 60.548,-157.92c42.967,-48.351 99.767,-74.024 163.887,-77.767Z" style="fill:#08438d;fill-rule:nonzero;"/><path d="M611.049,108.926c16.371,-3.286 30.896,-4.744 47.629,-3.829l0.167,56.722c-20.746,-0.14 -36.121,0.143 -55.562,8.723c-44.025,19.43 -66.496,56.432 -68.633,103.524c-17.596,0.545 -38.037,0.346 -55.775,0.062c1.417,-49.026 17,-89.294 53.246,-123.446c21.988,-20.889 49.292,-35.333 78.929,-41.757Z" style="fill:#0471b7;fill-rule:nonzero;"/></svg>