<?xml version="1.0" encoding="utf-8" ?><svg xmlns="http://www.w3.org/2000/svg" xmlns:xlink="http://www.w3.org/1999/xlink" width="256" height="63" viewBox="0 0 256 63">
<defs>
  <mask id="geoMask" maskUnits="userSpaceOnUse" x="0" y="0" width="256" height="63">
    <rect x="0" y="0" width="256" height="63" fill="black"/>
    <path fill="white" d="M54.076 3.34994C54.6744 3.306 55.2744 3.28775 55.8743 3.29522C62.0094 3.43207 66.6242 6.07074 70.7633 10.3991C69.4705 11.2053 67.9336 12.3569 66.6664 13.2584C65.0614 10.9847 60.9695 8.987 58.2415 8.49828C49.1232 6.86473 41.0048 12.8717 39.2411 21.8416C38.3234 26.4425 39.2649 31.2195 41.8598 35.128C47.1953 43.0628 57.4103 44.53 65.4312 39.4294C68.9495 37.192 70.2597 34.2709 71.0241 30.3206C64.0503 30.2301 57.087 30.3624 50.1152 30.2767C47.2426 30.2414 46.6196 28.98 47.0971 26.2262C48.6056 17.5269 58.5505 13.4448 66.3124 16.5295C71.1777 18.4631 73.1794 21.6049 75.1967 26.1384C76.8348 25.9948 77.3726 25.9616 79.0253 26.1611C79.1302 25.903 79.2424 25.6479 79.3619 25.3963C83.3854 16.8728 92.0139 13.2129 100.724 17.3308C101.839 18.0004 102.865 18.7105 103.825 19.5914C105.821 21.4223 108.13 24.6134 108.24 27.3667C108.27 28.1252 108.244 29.0263 107.694 29.6101C106.634 30.7378 85.8373 30.2528 82.7653 30.3443C83.0805 33.5753 83.4926 35.9569 85.8247 38.5188C87.7542 40.6676 90.4607 41.9584 93.3449 42.1054C96.5382 42.2385 99.3163 40.9734 101.627 38.8522C102.907 40.2427 103.512 40.9064 105.014 42.0336C103.882 43.0966 102.618 44.0084 101.252 44.7462C92.2129 49.6723 81.0791 44.7121 78.733 34.5792C78.4472 33.3449 78.4223 31.3437 77.8497 30.2904C74.9921 30.0202 75.8911 31.2176 75.3705 33.1663C71.5337 47.5268 53.0144 51.5265 42.1634 42.5497C37.6586 38.8269 34.8275 33.4588 34.2993 27.6387C33.117 14.9875 41.3127 4.54924 54.076 3.34994Z"/>
    <path fill="white" d="M184.369 15.3357C193.116 14.4467 200.93 20.8115 201.828 29.5577C202.727 38.3039 196.371 46.1249 187.626 47.0334C178.867 47.9433 171.031 41.575 170.131 32.815C169.231 24.0551 175.608 16.2262 184.369 15.3357Z"/>
    <path fill="white" d="M124.403 15.8457C133.073 14.8699 140.874 21.1514 141.77 29.8292C142.666 38.5069 136.313 46.25 127.627 47.0663C119.054 47.872 111.432 41.6189 110.548 33.0532C109.663 24.4875 115.846 16.8089 124.403 15.8457Z"/>
    <path fill="white" d="M154.855 2.78796C161.577 2.46343 163.631 5.26756 167.475 10.1863C166.5 11.2154 164.911 12.5172 163.798 13.4758C161.862 10.2632 159.293 8.3208 155.687 7.37381C152.897 8.29402 150.756 10.0324 151.02 13.2269C151.47 18.6717 159.46 22.0331 162.991 25.7281C166.752 29.2461 169.457 33.6997 167.638 39.0635C165.761 44.5989 161.272 46.9386 155.709 47.075C148.864 46.7115 146.327 42.9778 142.796 37.868C144.027 37.0457 145.916 36.0008 147.232 35.2161C149.677 38.8164 152.376 42.8761 157.464 41.7792C160.837 41.0522 163.611 39.2021 162.936 35.3624C161.654 26.4682 147.87 23.4814 146.103 15.0735C144.77 8.7283 148.872 3.99993 154.855 2.78796Z"/>
    <path fill="white" d="M204.496 10.5509C206.14 10.6183 207.498 10.6555 209.141 10.5979C209.152 21.1656 209.015 31.9806 209.227 42.5268L225.16 42.5509C225.024 44.0295 225.103 45.6478 225.139 47.1406C222.772 47.7284 207.653 47.2533 204.46 47.2473C204.407 35.0152 204.419 22.7829 204.496 10.5509Z"/>
    <path fill="black" d="M60.0952 20.0726C64.8553 19.5498 67.7628 22.4453 70.2391 25.9841L61.6875 25.991L51.6391 25.9759C53.6436 22.3393 55.9471 20.6893 60.0952 20.0726Z"/>
    <path fill="black" d="M91.8824 20.3079C97.7163 19.9106 99.7589 21.3231 103.028 25.9688L95.625 25.9881L84.0869 25.9746C86.4256 22.5768 88.0516 21.5256 91.8824 20.3079Z"/>
    <path fill="black" d="M183.98 20.1282C190.112 19.0291 195.97 23.1202 197.049 29.2552C198.128 35.3902 194.018 41.2349 187.88 42.2944C181.769 43.3491 175.957 39.2619 174.883 33.1549C173.808 27.0478 177.877 21.2224 183.98 20.1282Z"/>
    <path fill="black" d="M124.932 20.413C131.019 19.7392 136.5 24.1272 137.174 30.214C137.848 36.3009 133.46 41.7817 127.373 42.456C121.286 43.1304 115.805 38.7423 115.131 32.6552C114.457 26.568 118.845 21.0869 124.932 20.413Z"/>
  </mask>
</defs>
<g mask="url(#geoMask)">
  <rect x="0" y="0" width="256" height="63" fill="black"/>
</g>
</svg>